<svg aria-roledescription="er" viewBox="0 0 230.4375 298" style="max-width: 230.438px; background-color: white;" xmlns:xlink="http://www.w3.org/1999/xlink" xmlns="http://www.w3.org/2000/svg" width="100%" id="mermaid-0"><style>#mermaid-0{font-family:"trebuchet ms",verdana,arial,sans-serif;font-size:16px;fill:#000000;}#mermaid-0 .error-icon{fill:#552222;}#mermaid-0 .error-text{fill:#552222;stroke:#552222;}#mermaid-0 .edge-thickness-normal{stroke-width:2px;}#mermaid-0 .edge-thickness-thick{stroke-width:3.5px;}#mermaid-0 .edge-pattern-solid{stroke-dasharray:0;}#mermaid-0 .edge-pattern-dashed{stroke-dasharray:3;}#mermaid-0 .edge-pattern-dotted{stroke-dasharray:2;}#mermaid-0 .marker{fill:#666;stroke:#666;}#mermaid-0 .marker.cross{stroke:#666;}#mermaid-0 svg{font-family:"trebuchet ms",verdana,arial,sans-serif;font-size:16px;}#mermaid-0 .entityBox{fill:#eee;stroke:#999;}#mermaid-0 .attributeBoxOdd{fill:#ffffff;stroke:#999;}#mermaid-0 .attributeBoxEven{fill:#f2f2f2;stroke:#999;}#mermaid-0 .relationshipLabelBox{fill:hsl(-160, 0%, 93.3333333333%);opacity:0.7;background-color:hsl(-160, 0%, 93.3333333333%);}#mermaid-0 .relationshipLabelBox rect{opacity:0.5;}#mermaid-0 .relationshipLine{stroke:#666;}#mermaid-0 .entityTitleText{text-anchor:middle;font-size:18px;fill:#000000;}#mermaid-0 :root{--mermaid-font-family:"trebuchet ms",verdana,arial,sans-serif;}</style><g/><defs><marker orient="auto" markerHeight="18" markerWidth="18" refY="9" refX="0" id="ONLY_ONE_START"><path d="M9,0 L9,18 M15,0 L15,18" fill="none" stroke="gray"/></marker></defs><defs><marker orient="auto" markerHeight="18" markerWidth="18" refY="9" refX="18" id="ONLY_ONE_END"><path d="M3,0 L3,18 M9,0 L9,18" fill="none" stroke="gray"/></marker></defs><defs><marker orient="auto" markerHeight="18" markerWidth="30" refY="9" refX="0" id="ZERO_OR_ONE_START"><circle r="6" cy="9" cx="21" fill="white" stroke="gray"/><path d="M9,0 L9,18" fill="none" stroke="gray"/></marker></defs><defs><marker orient="auto" markerHeight="18" markerWidth="30" refY="9" refX="30" id="ZERO_OR_ONE_END"><circle r="6" cy="9" cx="9" fill="white" stroke="gray"/><path d="M21,0 L21,18" fill="none" stroke="gray"/></marker></defs><defs><marker orient="auto" markerHeight="36" markerWidth="45" refY="18" refX="18" id="ONE_OR_MORE_START"><path d="M0,18 Q 18,0 36,18 Q 18,36 0,18 M42,9 L42,27" fill="none" stroke="gray"/></marker></defs><defs><marker orient="auto" markerHeight="36" markerWidth="45" refY="18" refX="27" id="ONE_OR_MORE_END"><path d="M3,9 L3,27 M9,18 Q27,0 45,18 Q27,36 9,18" fill="none" stroke="gray"/></marker></defs><defs><marker orient="auto" markerHeight="36" markerWidth="57" refY="18" refX="18" id="ZERO_OR_MORE_START"><circle r="6" cy="18" cx="48" fill="white" stroke="gray"/><path d="M0,18 Q18,0 36,18 Q18,36 0,18" fill="none" stroke="gray"/></marker></defs><defs><marker orient="auto" markerHeight="36" markerWidth="57" refY="18" refX="39" id="ZERO_OR_MORE_END"><circle r="6" cy="18" cx="9" fill="white" stroke="gray"/><path d="M21,18 Q39,0 57,18 Q39,36 21,18" fill="none" stroke="gray"/></marker></defs><path style="stroke: gray; fill: none;" marker-start="url(#ZERO_OR_MORE_START)" marker-end="url(#ZERO_OR_MORE_END)" d="M99.46532534246575,66L93.75756278538813,74.33333333333333C88.0498002283105,82.66666666666667,76.63427511415524,99.33333333333333,74.85733016714052,116C73.08038522012579,132.66666666666666,80.94202044025157,149.33333333333334,84.87283805031446,157.66666666666666L88.80365566037736,166" class="er relationshipLine"/><path style="stroke: gray; fill: none;" marker-start="url(#ZERO_OR_MORE_START)" marker-end="url(#ZERO_OR_MORE_END)" d="M141.63384433962264,166L145.56466194968553,157.66666666666666C149.49547955974842,149.33333333333334,157.35711477987422,132.66666666666666,155.5801698328595,116C153.80322488584474,99.33333333333333,142.3876997716895,82.66666666666667,136.67993721461187,74.33333333333333L130.97217465753425,66" class="er relationshipLine"/><g transform="translate(49.35546875,20 )" id="entity-Subscription-6b2122c6-746d-4450-add2-a2657ca551b8"><rect height="46" width="131.7265625" y="0" x="0" class="er entityBox"/><text style="dominant-baseline: middle; text-anchor: middle; font-size: 12px;" transform="translate(65.86328125,12)" y="0" x="0" id="text-entity-Subscription-6b2122c6-746d-4450-add2-a2657ca551b8" class="er entityLabel">Subscription</text><rect height="22" width="36.5234375" y="24" x="0" class="er attributeBoxOdd"/><text style="dominant-baseline: middle; font-size: 10.2px;" transform="translate(5,35)" y="0" x="0" id="text-entity-Subscription-6b2122c6-746d-4450-add2-a2657ca551b8-attr-1-type" class="er entityLabel">String</text><rect height="22" width="73.640625" y="24" x="36.5234375" class="er attributeBoxOdd"/><text style="dominant-baseline: middle; font-size: 10.2px;" transform="translate(41.5234375,35)" y="0" x="0" id="text-entity-Subscription-6b2122c6-746d-4450-add2-a2657ca551b8-attr-1-name" class="er entityLabel">subscriptionId</text><rect height="22" width="21.5625" y="24" x="110.1640625" class="er attributeBoxOdd"/><text style="dominant-baseline: middle; font-size: 10.2px;" transform="translate(115.1640625,35)" y="0" x="0" id="text-entity-Subscription-6b2122c6-746d-4450-add2-a2657ca551b8-attr-1-key" class="er entityLabel">PK</text></g><g transform="translate(20,166 )" id="entity-User-46c9d30a-2057-4f13-999c-e27238c8dd1d"><rect height="112" width="190.4375" y="0" x="0" class="er entityBox"/><text style="dominant-baseline: middle; text-anchor: middle; font-size: 12px;" transform="translate(95.21875,12)" y="0" x="0" id="text-entity-User-46c9d30a-2057-4f13-999c-e27238c8dd1d" class="er entityLabel">User</text><rect height="22" width="53.6640625" y="24" x="0" class="er attributeBoxOdd"/><text style="dominant-baseline: middle; font-size: 10.2px;" transform="translate(5,35)" y="0" x="0" id="text-entity-User-46c9d30a-2057-4f13-999c-e27238c8dd1d-attr-1-type" class="er entityLabel">String</text><rect height="22" width="68.4296875" y="24" x="53.6640625" class="er attributeBoxOdd"/><text style="dominant-baseline: middle; font-size: 10.2px;" transform="translate(58.6640625,35)" y="0" x="0" id="text-entity-User-46c9d30a-2057-4f13-999c-e27238c8dd1d-attr-1-name" class="er entityLabel">id</text><rect height="22" width="21.5625" y="24" x="122.09375" class="er attributeBoxOdd"/><text style="dominant-baseline: middle; font-size: 10.2px;" transform="translate(127.09375,35)" y="0" x="0" id="text-entity-User-46c9d30a-2057-4f13-999c-e27238c8dd1d-attr-1-key" class="er entityLabel">PK</text><rect height="22" width="46.78125" y="24" x="143.65625" class="er attributeBoxOdd"/><text style="dominant-baseline: middle; font-size: 10.2px;" transform="translate(148.65625,35)" y="0" x="0" id="text-entity-User-46c9d30a-2057-4f13-999c-e27238c8dd1d-attr-1-comment" class="er entityLabel"/><rect height="22" width="53.6640625" y="46" x="0" class="er attributeBoxEven"/><text style="dominant-baseline: middle; font-size: 10.2px;" transform="translate(5,57)" y="0" x="0" id="text-entity-User-46c9d30a-2057-4f13-999c-e27238c8dd1d-attr-2-type" class="er entityLabel">String</text><rect height="22" width="68.4296875" y="46" x="53.6640625" class="er attributeBoxEven"/><text style="dominant-baseline: middle; font-size: 10.2px;" transform="translate(58.6640625,57)" y="0" x="0" id="text-entity-User-46c9d30a-2057-4f13-999c-e27238c8dd1d-attr-2-name" class="er entityLabel">email</text><rect height="22" width="21.5625" y="46" x="122.09375" class="er attributeBoxEven"/><text style="dominant-baseline: middle; font-size: 10.2px;" transform="translate(127.09375,57)" y="0" x="0" id="text-entity-User-46c9d30a-2057-4f13-999c-e27238c8dd1d-attr-2-key" class="er entityLabel"/><rect height="22" width="46.78125" y="46" x="143.65625" class="er attributeBoxEven"/><text style="dominant-baseline: middle; font-size: 10.2px;" transform="translate(148.65625,57)" y="0" x="0" id="text-entity-User-46c9d30a-2057-4f13-999c-e27238c8dd1d-attr-2-comment" class="er entityLabel">nullable</text><rect height="22" width="53.6640625" y="68" x="0" class="er attributeBoxOdd"/><text style="dominant-baseline: middle; font-size: 10.2px;" transform="translate(5,79)" y="0" x="0" id="text-entity-User-46c9d30a-2057-4f13-999c-e27238c8dd1d-attr-3-type" class="er entityLabel">String</text><rect height="22" width="68.4296875" y="68" x="53.6640625" class="er attributeBoxOdd"/><text style="dominant-baseline: middle; font-size: 10.2px;" transform="translate(58.6640625,79)" y="0" x="0" id="text-entity-User-46c9d30a-2057-4f13-999c-e27238c8dd1d-attr-3-name" class="er entityLabel">phone</text><rect height="22" width="21.5625" y="68" x="122.09375" class="er attributeBoxOdd"/><text style="dominant-baseline: middle; font-size: 10.2px;" transform="translate(127.09375,79)" y="0" x="0" id="text-entity-User-46c9d30a-2057-4f13-999c-e27238c8dd1d-attr-3-key" class="er entityLabel"/><rect height="22" width="46.78125" y="68" x="143.65625" class="er attributeBoxOdd"/><text style="dominant-baseline: middle; font-size: 10.2px;" transform="translate(148.65625,79)" y="0" x="0" id="text-entity-User-46c9d30a-2057-4f13-999c-e27238c8dd1d-attr-3-comment" class="er entityLabel">nullable</text><rect height="22" width="53.6640625" y="90" x="0" class="er attributeBoxEven"/><text style="dominant-baseline: middle; font-size: 10.2px;" transform="translate(5,101)" y="0" x="0" id="text-entity-User-46c9d30a-2057-4f13-999c-e27238c8dd1d-attr-4-type" class="er entityLabel">DateTime</text><rect height="22" width="68.4296875" y="90" x="53.6640625" class="er attributeBoxEven"/><text style="dominant-baseline: middle; font-size: 10.2px;" transform="translate(58.6640625,101)" y="0" x="0" id="text-entity-User-46c9d30a-2057-4f13-999c-e27238c8dd1d-attr-4-name" class="er entityLabel">subscribedAt</text><rect height="22" width="21.5625" y="90" x="122.09375" class="er attributeBoxEven"/><text style="dominant-baseline: middle; font-size: 10.2px;" transform="translate(127.09375,101)" y="0" x="0" id="text-entity-User-46c9d30a-2057-4f13-999c-e27238c8dd1d-attr-4-key" class="er entityLabel"/><rect height="22" width="46.78125" y="90" x="143.65625" class="er attributeBoxEven"/><text style="dominant-baseline: middle; font-size: 10.2px;" transform="translate(148.65625,101)" y="0" x="0" id="text-entity-User-46c9d30a-2057-4f13-999c-e27238c8dd1d-attr-4-comment" class="er entityLabel"/></g><rect height="0" width="0" y="114.16755676269531" x="75.09093475341797" class="er relationshipLabelBox"/><text style="text-anchor: middle; dominant-baseline: middle; font-size: 12px;" y="114.16755676269531" x="75.09093475341797" id="rel1" class="er relationshipLabel"/><rect height="0" width="0" y="114.16756439208984" x="155.3465576171875" class="er relationshipLabelBox"/><text style="text-anchor: middle; dominant-baseline: middle; font-size: 12px;" y="114.16756439208984" x="155.3465576171875" id="rel2" class="er relationshipLabel"/></svg>